<svg version="1.1" id="Layer_1" xmlns="http://www.w3.org/2000/svg" xmlns:xlink="http://www.w3.org/1999/xlink" x="0px" y="0px"
	 width="100%" viewBox="0 0 733 469" enable-background="new 0 0 733 469" xml:space="preserve">
<path fill="#FFFFFE" opacity="1.000000" stroke="none" 
	d="
M444.000000,1.000000 
	C540.630981,1.000000 637.262024,1.000000 733.946533,1.000000 
	C733.946533,157.239990 733.946533,313.479980 733.946533,470.000000 
	C596.977478,470.000000 459.954773,470.000000 322.693268,469.642914 
	C390.769440,464.491150 456.008636,447.951172 517.772095,417.939941 
	C500.147369,417.939941 482.522614,417.939941 465.141632,417.678894 
	C475.072723,413.269196 484.760040,409.120483 494.447357,404.971802 
	C492.478973,403.838867 490.755066,403.830963 489.031219,403.839996 
	C425.620483,404.171997 362.209808,404.520477 298.798981,404.830627 
	C277.159668,404.936493 255.519638,404.897797 233.880417,405.015747 
	C216.408768,405.110992 198.938217,405.408508 181.466553,405.495667 
	C162.171432,405.591919 142.875610,405.550659 123.786362,405.305573 
	C177.389084,343.779541 230.779984,282.512421 284.183746,221.256500 
	C326.317993,172.927094 368.725006,124.831146 410.385986,76.097290 
	C418.350586,66.780495 426.101532,61.039608 438.514526,63.821541 
	C439.308014,63.999374 440.175720,63.843315 441.008911,63.846905 
	C498.485870,64.094559 555.962830,64.343964 613.439819,64.588173 
	C617.963745,64.607391 622.487793,64.590698 627.011780,64.590698 
	C627.109436,64.281029 627.207153,63.971359 627.304810,63.661690 
	C619.530762,59.244858 611.756714,54.828026 603.967590,50.042976 
	C602.602539,48.728443 601.300476,47.703403 599.895508,46.847221 
	C556.419800,20.353367 508.550385,8.028627 458.421875,2.959984 
	C453.597839,2.472211 448.806519,1.661042 444.000000,1.000000 
M561.149475,129.500412 
	C557.838867,133.768097 554.528259,138.035767 551.336853,142.149780 
	C600.029358,142.149780 648.405701,142.149780 698.185730,142.149780 
	C693.641235,133.629715 690.030334,126.189384 685.818604,119.106316 
	C677.587402,105.263466 677.448486,105.346054 660.632385,105.475601 
	C658.297302,102.047119 656.278687,98.329376 653.508728,95.298302 
	C651.838806,93.471001 649.016602,91.666542 646.684814,91.630638 
	C617.254944,91.177475 587.820007,90.986000 558.386353,90.972466 
	C556.349731,90.971527 553.718750,92.417831 552.373718,94.032227 
	C544.926453,102.971077 537.781860,112.162552 530.557800,121.286629 
	C528.763306,123.553047 527.058289,125.890305 524.783142,128.893295 
	C537.736084,128.893295 549.651123,128.893295 561.149475,129.500412 
M681.593506,183.211868 
	C681.593506,178.921448 681.593506,174.631027 681.593506,169.997894 
	C678.982910,169.997894 677.169250,170.013199 675.355835,169.995544 
	C657.700867,169.823669 640.046265,169.582474 622.390869,169.483032 
	C578.075439,169.233444 533.759827,169.013687 489.443970,168.945175 
	C487.448883,168.942093 484.889374,170.019775 483.545197,171.474274 
	C474.167419,181.621811 465.039337,192.000107 455.836548,202.309219 
	C454.697144,203.585571 453.588806,204.889603 451.688629,207.074966 
	C465.342865,207.074966 477.645111,207.074966 489.695038,207.680679 
	C485.889679,211.931763 482.084320,216.182846 477.940704,220.811829 
	C554.164673,220.811829 629.498718,220.811829 705.715820,220.811829 
	C706.336853,208.521805 706.942932,196.526199 707.570679,184.103180 
	C698.154602,184.103180 690.019104,184.103180 681.593506,183.211868 
M422.934662,284.974274 
	C419.695068,289.084808 416.455475,293.195343 413.215881,297.305847 
	C413.352997,297.819366 413.490143,298.332886 413.627258,298.846405 
	C429.384705,298.846405 445.143311,298.723755 460.899292,298.875580 
	C483.540680,299.093750 506.179565,299.559174 528.820557,299.834595 
	C574.443420,300.389648 620.066772,300.923309 665.691345,301.281982 
	C667.561584,301.296661 670.240845,299.934326 671.196106,298.383698 
	C677.645508,287.914429 683.749756,277.231873 689.905273,266.583374 
	C690.498718,265.556793 690.680237,264.292084 691.264832,262.481964 
	C680.071777,262.481964 669.598328,262.481964 659.286316,261.863525 
	C661.415833,257.488770 663.545410,253.114029 665.775085,248.533615 
	C664.504456,248.304962 664.177490,248.194595 663.850464,248.194534 
	C582.100037,248.178101 500.349518,248.151474 418.599274,248.278564 
	C416.822052,248.281326 414.554474,249.630981 413.351379,251.057281 
	C405.197998,260.723236 397.258759,270.570190 389.286255,280.387878 
	C388.530090,281.319092 388.021240,282.451202 386.856781,284.390869 
	C399.634430,284.390869 411.439362,284.390869 422.934662,284.974274 
M352.056091,364.999481 
	C348.553802,369.354095 345.051483,373.708710 340.918243,378.847839 
	C343.681946,378.847839 345.436676,378.855804 347.191345,378.846680 
	C391.335510,378.616821 435.479523,378.353455 479.623840,378.163849 
	C514.947693,378.012177 550.272644,378.029175 585.594849,377.714600 
	C588.822632,377.685822 592.549316,376.502594 595.156006,374.623291 
	C602.981812,368.981201 610.490723,362.875580 617.886780,356.668945 
	C624.063721,351.485443 629.907410,345.904785 636.868591,339.625031 
	C622.150940,339.625031 608.903870,339.625031 596.067627,339.105560 
	C600.670898,334.751251 605.274231,330.396942 610.482727,325.470154 
	C600.785278,325.470154 592.334351,325.447357 583.883484,325.474121 
	C548.252197,325.586914 512.620789,325.688721 476.989624,325.843323 
	C434.869324,326.026062 392.748779,326.212280 350.630219,326.599609 
	C348.370270,326.620392 345.487335,327.947083 343.987549,329.636353 
	C337.472198,336.975006 331.359955,344.671692 325.106171,352.242310 
	C321.979034,356.027893 318.862488,359.822235 315.065308,364.433380 
	C328.263062,364.433380 340.341187,364.433380 352.056091,364.999481 
z"/>
<path fill="#18486F" opacity="1.000000" stroke="none" 
	d="
M443.531342,1.000000 
	C448.806519,1.661042 453.597839,2.472211 458.421875,2.959984 
	C508.550385,8.028627 556.419800,20.353367 599.895508,46.847221 
	C601.300476,47.703403 602.602539,48.728443 603.510986,49.940979 
	C541.263367,49.858341 479.448639,49.968060 417.657776,48.807880 
	C403.834717,48.548340 395.166504,52.786110 386.182983,63.163773 
	C293.536011,170.188934 200.316360,276.718323 107.262001,383.390839 
	C100.962563,390.612152 94.710068,397.874420 88.044510,405.569305 
	C100.408646,405.569305 111.994370,405.569305 123.580093,405.569305 
	C142.875610,405.550659 162.171432,405.591919 181.466553,405.495667 
	C198.938217,405.408508 216.408768,405.110992 233.880417,405.015747 
	C255.519638,404.897797 277.159668,404.936493 298.798981,404.830627 
	C362.209808,404.520477 425.620483,404.171997 489.031219,403.839996 
	C490.755066,403.830963 492.478973,403.838867 494.447357,404.971802 
	C484.760040,409.120483 475.072723,413.269196 464.771179,417.713013 
	C463.682800,418.158936 463.199646,418.286194 462.735779,418.463776 
	C383.490143,448.806305 301.819153,462.049500 217.060944,452.980621 
	C179.456665,448.957062 143.142838,439.875580 108.666496,424.009491 
	C106.767189,423.135406 104.640892,422.754578 102.371948,421.912781 
	C90.281105,414.157501 77.958740,407.285339 66.686989,398.986267 
	C34.281670,375.127106 11.699178,344.437103 3.451517,304.303192 
	C2.741222,300.846832 1.822110,297.433380 1.000000,294.000000 
	C1.000000,282.979095 1.000000,271.958221 1.366104,260.303802 
	C4.772358,237.014084 11.908692,215.712402 22.797581,195.630951 
	C45.260117,154.205200 77.549080,121.667534 115.512230,94.613457 
	C191.728455,40.298698 277.431061,11.901167 370.050781,2.878320 
	C374.717224,2.423725 379.351013,1.633793 384.000000,0.999999 
	C403.687561,1.000000 423.375122,1.000000 443.531342,1.000000 
z"/>
<path fill="#FEFFFF" opacity="1.000000" stroke="none" 
	d="
M383.531342,0.999999 
	C379.351013,1.633793 374.717224,2.423725 370.050781,2.878320 
	C277.431061,11.901167 191.728455,40.298698 115.512230,94.613457 
	C77.549080,121.667534 45.260117,154.205200 22.797581,195.630951 
	C11.908692,215.712402 4.772358,237.014084 1.366104,259.835144 
	C1.000000,173.725525 1.000000,87.451057 1.000000,1.000000 
	C128.354172,1.000000 255.708435,1.000000 383.531342,0.999999 
z"/>
<path fill="#FFFFFE" opacity="1.000000" stroke="none" 
	d="
M1.000000,294.468658 
	C1.822110,297.433380 2.741222,300.846832 3.451517,304.303192 
	C11.699178,344.437103 34.281670,375.127106 66.686989,398.986267 
	C77.958740,407.285339 90.281105,414.157501 102.586731,422.195740 
	C143.938553,448.404938 189.165909,461.016205 236.592255,467.000946 
	C244.396713,467.985748 252.197510,468.999603 260.000000,470.000000 
	C173.753555,470.000000 87.507111,470.000000 1.000000,470.000000 
	C1.000000,411.646027 1.000000,353.291687 1.000000,294.468658 
z"/>
<path fill="#FEEC03" opacity="1.000000" stroke="none" 
	d="
M260.468658,470.000000 
	C252.197510,468.999603 244.396713,467.985748 236.592255,467.000946 
	C189.165909,461.016205 143.938553,448.404938 102.835045,422.427124 
	C104.640892,422.754578 106.767189,423.135406 108.666496,424.009491 
	C143.142838,439.875580 179.456665,448.957062 217.060944,452.980621 
	C301.819153,462.049500 383.490143,448.806305 462.735779,418.463776 
	C463.199646,418.286194 463.682800,418.158936 464.527405,417.974060 
	C482.522614,417.939941 500.147369,417.939941 517.772095,417.939941 
	C456.008636,447.951172 390.769440,464.491150 322.227234,469.642914 
	C301.645782,470.000000 281.291534,470.000000 260.468658,470.000000 
z"/>
<path fill="#FEEC02" opacity="1.000000" stroke="none" 
	d="
M123.786362,405.305573 
	C111.994370,405.569305 100.408646,405.569305 88.044510,405.569305 
	C94.710068,397.874420 100.962563,390.612152 107.262001,383.390839 
	C200.316360,276.718323 293.536011,170.188934 386.182983,63.163773 
	C395.166504,52.786110 403.834717,48.548340 417.657776,48.807880 
	C479.448639,49.968060 541.263367,49.858341 603.526062,50.309193 
	C611.756714,54.828026 619.530762,59.244858 627.304810,63.661690 
	C627.207153,63.971359 627.109436,64.281029 627.011780,64.590698 
	C622.487793,64.590698 617.963745,64.607391 613.439819,64.588173 
	C555.962830,64.343964 498.485870,64.094559 441.008911,63.846905 
	C440.175720,63.843315 439.308014,63.999374 438.514526,63.821541 
	C426.101532,61.039608 418.350586,66.780495 410.385986,76.097290 
	C368.725006,124.831146 326.317993,172.927094 284.183746,221.256500 
	C230.779984,282.512421 177.389084,343.779541 123.786362,405.305573 
z"/>
<path fill="#19496F" opacity="1.000000" stroke="none" 
	d="
M352.419312,364.433380 
	C340.341187,364.433380 328.263062,364.433380 315.065308,364.433380 
	C318.862488,359.822235 321.979034,356.027893 325.106171,352.242310 
	C331.359955,344.671692 337.472198,336.975006 343.987549,329.636353 
	C345.487335,327.947083 348.370270,326.620392 350.630219,326.599609 
	C392.748779,326.212280 434.869324,326.026062 476.989624,325.843323 
	C512.620789,325.688721 548.252197,325.586914 583.883484,325.474121 
	C592.334351,325.447357 600.785278,325.470154 610.482727,325.470154 
	C605.274231,330.396942 600.670898,334.751251 595.565796,339.520020 
	C586.209412,346.970886 577.425781,354.100006 568.437378,360.960999 
	C566.754517,362.245544 564.260742,363.043945 562.127136,363.074158 
	C536.502502,363.437286 510.875580,363.700592 485.248474,363.816010 
	C452.949738,363.961487 420.650238,363.913391 388.351257,364.017487 
	C376.373627,364.056061 364.396606,364.289062 352.419312,364.433380 
z"/>
<path fill="#1A4A70" opacity="1.000000" stroke="none" 
	d="
M423.244293,284.390869 
	C411.439362,284.390869 399.634430,284.390869 386.856781,284.390869 
	C388.021240,282.451202 388.530090,281.319092 389.286255,280.387878 
	C397.258759,270.570190 405.197998,260.723236 413.351379,251.057281 
	C414.554474,249.630981 416.822052,248.281326 418.599274,248.278564 
	C500.349518,248.151474 582.100037,248.178101 663.850464,248.194534 
	C664.177490,248.194595 664.504456,248.304962 665.775085,248.533615 
	C663.545410,253.114029 661.415833,257.488770 658.975586,262.474945 
	C654.454651,269.859924 650.145996,276.575226 646.080261,283.434418 
	C644.349243,286.354675 642.194946,287.304596 638.810913,287.240265 
	C614.027161,286.768982 589.239319,286.516571 564.453247,286.160980 
	C539.169128,285.798248 513.886169,285.348511 488.601593,285.026520 
	C466.816650,284.749115 445.030121,284.597900 423.244293,284.390869 
z"/>
<path fill="#194A6F" opacity="1.000000" stroke="none" 
	d="
M489.947388,207.074951 
	C477.645111,207.074966 465.342865,207.074966 451.688629,207.074966 
	C453.588806,204.889603 454.697144,203.585571 455.836548,202.309219 
	C465.039337,192.000107 474.167419,181.621811 483.545197,171.474274 
	C484.889374,170.019775 487.448883,168.942093 489.443970,168.945175 
	C533.759827,169.013687 578.075439,169.233444 622.390869,169.483032 
	C640.046265,169.582474 657.700867,169.823669 675.355835,169.995544 
	C677.169250,170.013199 678.982910,169.997894 681.593506,169.997894 
	C681.593506,174.631027 681.593506,178.921448 681.620544,184.051086 
	C680.887939,192.125244 680.128296,199.360184 679.342651,206.842178 
	C676.667419,206.842178 674.685547,206.842178 672.703674,206.842178 
	C613.776794,206.842178 554.849854,206.839905 495.922974,206.851959 
	C493.931122,206.852371 491.939240,206.997360 489.947388,207.074951 
z"/>
<path fill="#FEEC02" opacity="1.000000" stroke="none" 
	d="
M352.237701,364.716431 
	C364.396606,364.289062 376.373627,364.056061 388.351257,364.017487 
	C420.650238,363.913391 452.949738,363.961487 485.248474,363.816010 
	C510.875580,363.700592 536.502502,363.437286 562.127136,363.074158 
	C564.260742,363.043945 566.754517,362.245544 568.437378,360.960999 
	C577.425781,354.100006 586.209412,346.970886 595.360352,339.779755 
	C608.903870,339.625031 622.150940,339.625031 636.868591,339.625031 
	C629.907410,345.904785 624.063721,351.485443 617.886780,356.668945 
	C610.490723,362.875580 602.981812,368.981201 595.156006,374.623291 
	C592.549316,376.502594 588.822632,377.685822 585.594849,377.714600 
	C550.272644,378.029175 514.947693,378.012177 479.623840,378.163849 
	C435.479523,378.353455 391.335510,378.616821 347.191345,378.846680 
	C345.436676,378.855804 343.681946,378.847839 340.918243,378.847839 
	C345.051483,373.708710 348.553802,369.354095 352.237701,364.716431 
z"/>
<path fill="#19496F" opacity="1.000000" stroke="none" 
	d="
M561.566223,128.893295 
	C549.651123,128.893295 537.736084,128.893295 524.783142,128.893295 
	C527.058289,125.890305 528.763306,123.553047 530.557800,121.286629 
	C537.781860,112.162552 544.926453,102.971077 552.373718,94.032227 
	C553.718750,92.417831 556.349731,90.971527 558.386353,90.972466 
	C587.820007,90.986000 617.254944,91.177475 646.684814,91.630638 
	C649.016602,91.666542 651.838806,93.471001 653.508728,95.298302 
	C656.278687,98.329376 658.297302,102.047119 660.919556,106.063400 
	C664.730652,113.450897 668.254639,120.250595 672.270569,127.999557 
	C651.215881,127.999557 631.780884,127.884277 612.347900,128.034378 
	C595.419495,128.165146 578.493347,128.595383 561.566223,128.893295 
z"/>
<path fill="#FEEC02" opacity="1.000000" stroke="none" 
	d="
M423.089478,284.682556 
	C445.030121,284.597900 466.816650,284.749115 488.601593,285.026520 
	C513.886169,285.348511 539.169128,285.798248 564.453247,286.160980 
	C589.239319,286.516571 614.027161,286.768982 638.810913,287.240265 
	C642.194946,287.304596 644.349243,286.354675 646.080261,283.434418 
	C650.145996,276.575226 654.454651,269.859924 658.894897,262.784180 
	C669.598328,262.481964 680.071777,262.481964 691.264832,262.481964 
	C690.680237,264.292084 690.498718,265.556793 689.905273,266.583374 
	C683.749756,277.231873 677.645508,287.914429 671.196106,298.383698 
	C670.240845,299.934326 667.561584,301.296661 665.691345,301.281982 
	C620.066772,300.923309 574.443420,300.389648 528.820557,299.834595 
	C506.179565,299.559174 483.540680,299.093750 460.899292,298.875580 
	C445.143311,298.723755 429.384705,298.846405 413.627258,298.846405 
	C413.490143,298.332886 413.352997,297.819366 413.215881,297.305847 
	C416.455475,293.195343 419.695068,289.084808 423.089478,284.682556 
z"/>
<path fill="#FFED01" opacity="1.000000" stroke="none" 
	d="
M489.821228,207.377808 
	C491.939240,206.997360 493.931122,206.852371 495.922974,206.851959 
	C554.849854,206.839905 613.776794,206.842178 672.703674,206.842178 
	C674.685547,206.842178 676.667419,206.842178 679.342651,206.842178 
	C680.128296,199.360184 680.887939,192.125244 681.765625,184.496735 
	C690.019104,184.103180 698.154602,184.103180 707.570679,184.103180 
	C706.942932,196.526199 706.336853,208.521805 705.715820,220.811829 
	C629.498718,220.811829 554.164673,220.811829 477.940704,220.811829 
	C482.084320,216.182846 485.889679,211.931763 489.821228,207.377808 
z"/>
<path fill="#FEEC02" opacity="1.000000" stroke="none" 
	d="
M561.357849,129.196854 
	C578.493347,128.595383 595.419495,128.165146 612.347900,128.034378 
	C631.780884,127.884277 651.215881,127.999557 672.270569,127.999557 
	C668.254639,120.250595 664.730652,113.450897 661.157837,106.308365 
	C677.448486,105.346054 677.587402,105.263466 685.818604,119.106316 
	C690.030334,126.189384 693.641235,133.629715 698.185730,142.149780 
	C648.405701,142.149780 600.029358,142.149780 551.336853,142.149780 
	C554.528259,138.035767 557.838867,133.768097 561.357849,129.196854 
z"/>
</svg>